<svg width="64" height="64" viewBox="0 0 64 64" fill="none" xmlns="http://www.w3.org/2000/svg">
<g clip-path="url(#clip0_794_917)">
<path fill-rule="evenodd" clip-rule="evenodd" d="M41.9667 3.24289C41.9646 3.24409 41.9625 3.2453 41.9605 3.24651C41.8117 3.33353 41.6752 3.44189 41.5555 3.56914L12.5555 34.3816C12.3126 34.6392 12.1505 34.9623 12.0892 35.3109C12.0278 35.6595 12.0699 36.0185 12.2103 36.3435C12.3506 36.6685 12.583 36.9453 12.8789 37.1397C13.1747 37.3341 13.521 37.4377 13.875 37.4375H23.2129C24.5585 37.4375 25.5202 38.7396 25.1245 40.0257L19.3922 58.6546C19.2714 59.046 19.2868 59.4668 19.4357 59.8483C19.5847 60.2299 19.8585 60.5497 20.2125 60.7558C20.5665 60.9618 20.9798 61.0418 21.3852 60.9828C21.7905 60.9238 22.1639 60.7293 22.4445 60.4309L51.4445 29.6184C51.6873 29.3608 51.8494 29.0378 51.9108 28.6891C51.9721 28.3405 51.93 27.9815 51.7897 27.6565C51.6494 27.3315 51.417 27.0547 51.1211 26.8603C50.8253 26.6659 50.479 26.5624 50.125 26.5625H40.7872C39.4415 26.5625 38.4799 25.2604 38.8757 23.9742L44.6077 5.34901C44.7287 4.95716 44.7131 4.53587 44.5637 4.15399C44.4142 3.7721 44.1397 3.45219 43.7849 3.24651V3.24289C43.431 3.03771 43.0181 2.95829 42.6133 3.01752C42.3838 3.0511 42.1646 3.12815 41.9667 3.24289ZM37.289 12.4795C38.0149 11.7083 39.2845 12.4468 38.973 13.459L36.0084 23.0918C35.0189 26.3071 37.423 29.5625 40.7872 29.5625H45.0629C45.9393 29.5625 46.3917 30.6097 45.7911 31.2479L26.7119 51.5195C25.9861 52.2907 24.7165 51.5523 25.028 50.54L27.9918 40.908C28.9811 37.6927 26.577 34.4375 23.2129 34.4375H18.9371C18.0607 34.4375 17.6082 33.3903 18.2089 32.7522L37.289 12.4795Z" fill="url(#paint0_linear_794_917)"/>
</g>
<defs>
<linearGradient id="paint0_linear_794_917" x1="43.0463" y1="2.99841" x2="20.9537" y2="61.0017" gradientUnits="userSpaceOnUse">
<stop stop-color="#D8A646"/>
<stop offset="0.5" stop-color="#D546D8"/>
<stop offset="1" stop-color="#4678D8"/>
</linearGradient>
<clipPath id="clip0_794_917">
<rect width="58" height="58" fill="white" transform="translate(3 3)"/>
</clipPath>
</defs>
</svg>
